<svg width="170" height="59" viewBox="0 0 170 59" fill="none" xmlns="http://www.w3.org/2000/svg"><path d="M0.101562 2.58458V43.6902H7.64963V25.9755H20.8735L20.8108 19.738H7.64963V8.88501H20.9977L23.0565 2.58458H0.101562Z" fill="#FD9600"></path><path d="M31.1783 9.63312C28.6208 9.63312 26.5625 7.63752 26.5625 5.07899C26.5625 2.6472 28.6208 0.588867 31.1783 0.588867C33.798 0.588867 35.8558 2.58448 35.8558 5.07899C35.8558 7.57402 33.798 9.63312 31.1783 9.63312ZM27.4354 14.1865H34.9202V43.6904H27.4354V14.1865Z" fill="#FD9600"></path><path d="M42.7305 43.6904V2.58442H50.2783V37.3275H64.9989V43.6904H42.7305Z" fill="#0F0F0F"></path><path d="M112.122 58.411C103.264 58.411 98.0869 54.4193 98.0869 49.6783C98.0869 46.3106 100.519 43.94 103.513 42.6296C102.079 41.8817 101.517 40.2598 101.517 38.9502C101.517 37.1407 102.764 35.0199 105.26 33.4615C102.079 31.8386 100.145 28.1591 100.145 24.4164C100.145 18.8023 104.386 13.3753 112.371 13.3753C114.741 13.3753 116.675 13.9372 117.985 14.6859C118.359 14.8725 118.546 14.7476 118.733 14.4983C120.48 12.8764 123.099 11.6915 128.027 12.1911L126.468 17.7418C124.908 17.4297 123.474 17.2429 122.289 17.7418C124.035 19.6132 125.096 21.7962 125.096 25.1652C125.096 31.59 119.606 35.7691 112.995 35.7691C111.435 35.7691 110.25 35.6437 109.002 35.2075C108.503 36.0184 108.254 36.6423 108.254 37.5779C108.254 42.0058 128.401 37.8272 128.401 48.6183C128.401 53.7327 123.225 58.411 112.122 58.411ZM107.007 44.6263C106.009 45.3118 104.512 46.435 104.512 48.4941C104.512 50.9886 107.63 53.1089 112.745 53.1089C117.049 53.1089 120.23 51.7371 120.23 49.4295C120.23 45.6238 110.313 45.9988 107.007 44.6263ZM112.184 19.1144C109.439 19.1144 107.256 20.9231 107.256 24.2915C107.256 27.4101 109.189 30.0306 112.496 30.0306C115.427 30.0306 117.735 28.2211 117.735 24.6033C117.735 21.8587 115.677 19.1144 112.184 19.1144Z" fill="#0F0F0F"></path><path d="M135.39 9.63312C132.833 9.63312 130.774 7.63752 130.774 5.07899C130.774 2.6472 132.833 0.588867 135.39 0.588867C138.009 0.588867 140.067 2.58448 140.067 5.07899C140.067 7.57402 138.009 9.63312 135.39 9.63312ZM131.647 14.1865H139.132V43.6904H131.647V14.1865Z" fill="#0F0F0F"></path><path d="M159.481 44.3142C149.875 44.3142 144.947 37.391 144.947 29.0947C144.947 20.1124 151.435 13.5002 160.229 13.5002C164.221 13.5002 166.966 14.4983 168.65 15.5583L168.525 21.6711C166.467 20.1124 164.159 19.2393 161.103 19.2393C156.05 19.2393 152.433 23.2307 152.433 28.7197C152.433 33.773 155.177 38.2634 161.04 38.2634C163.847 38.2634 165.968 37.391 168.027 36.2053L169.898 41.1337C167.527 42.7548 163.535 44.3142 159.481 44.3142Z" fill="#0F0F0F"></path><path d="M87.4765 39.5475L84.9672 36.1124L82.4573 32.6786C82.2423 32.3833 81.9327 32.2144 81.6068 32.2144C81.2805 32.2144 80.9713 32.3833 80.7566 32.6786L78.2459 36.1124L75.7366 39.5475C75.4433 39.9498 75.3722 40.5205 75.5562 41.0098C75.7397 41.4965 76.1436 41.8098 76.5876 41.8098H78.9405V48.7049C78.9405 49.4568 79.4477 50.0684 80.0729 50.0684H83.1402C83.7653 50.0684 84.2734 49.4568 84.2734 48.7049V41.8098H86.6255C87.0695 41.8098 87.4734 41.4965 87.6577 41.0098C87.8401 40.5205 87.7683 39.9498 87.4765 39.5475Z" fill="#FD9600"></path><path d="M92.5833 17.7418C89.9639 15.0599 86.2839 13.4999 81.7303 13.4999C77.4266 13.4999 73.8705 15.0599 71.251 17.6798C68.507 20.4869 66.9473 24.4784 66.9473 29.0947C66.9473 33.8349 68.5692 37.8894 71.5006 40.634C72.303 41.3778 73.198 42.017 74.175 42.5443C73.9873 42.2942 73.8307 42.0123 73.7141 41.7029C73.2974 40.5955 73.4629 39.3257 74.1471 38.3867L76.2354 35.5284C75.1441 33.8667 74.557 31.5918 74.557 28.9071C74.557 23.4181 76.8654 19.4261 81.6054 19.4261C86.2213 19.4261 88.8417 23.2307 88.8417 28.9071C88.8417 31.6452 88.2637 34.0182 87.1178 35.721L89.0695 38.3925C89.7471 39.3276 89.9127 40.5942 89.4976 41.7065C89.3773 42.0245 89.2147 42.3137 89.0192 42.569C90.2549 41.9056 91.3635 41.0668 92.3343 40.0729C95.0787 37.3275 96.5137 33.3363 96.5137 28.8444C96.5137 24.3537 95.1411 20.4869 92.5833 17.7418Z" fill="#0F0F0F"></path></svg>